<?xml version="1.0" encoding="utf-8"?>

<!DOCTYPE svg PUBLIC "-//W3C//DTD SVG 1.1//EN" "http://www.w3.org/Graphics/SVG/1.1/DTD/svg11.dtd">
<!-- Uploaded to: SVG Repo, www.svgrepo.com, Generator: SVG Repo Mixer Tools -->
<svg height="800px" width="800px" version="1.1" id="_x32_" xmlns="http://www.w3.org/2000/svg" xmlns:xlink="http://www.w3.org/1999/xlink" 
	 viewBox="0 0 512 512"  xml:space="preserve">
<style type="text/css">
	.st0{fill:#000000;}
</style>
<g>
	<path class="st0" d="M470.253,247.982c0-3.256,0-56.453,0-69.438c0-12.985-8.47-25.958-21.645-25.958
		c-4.324,0-23.808-47.615-23.808-47.615s2.186,5.406-2.162-20.552c-4.313-25.993-62.75-72.516-72.492-77.921
		c-9.742-5.417-18.39-1.081-18.39,3.243c0,4.325,0,17.298,0,17.298h-28.132V17.19c0-9.48-7.698-17.19-17.19-17.19h-30.425h-30.436
		c-9.48,0-17.178,7.71-17.178,17.19v9.849h-28.132c0,0,0-12.973,0-17.298c0-4.324-8.66-8.66-18.39-3.243
		c-9.742,5.405-68.179,51.928-72.504,77.921c-4.336,25.958-2.162,20.552-2.162,20.552s-8.542,20.874-15.575,34.974h224.412v12.641
		H63.391c-13.152,0-21.645,12.972-21.645,25.958c0,12.985,0,66.182,0,69.438c0,3.231-6.712,118.454,76.648,201.804
		c34.619,34.618,86.546,54.813,127.876,62.214h19.482c41.318-7.401,93.257-27.596,127.875-62.214
		C476.977,366.436,470.253,251.212,470.253,247.982z M206.235,102.797c0,4.776-3.886,8.66-8.649,8.66
		c-4.799,0-8.672-3.884-8.672-8.66V76.828c0-4.776,3.873-8.649,8.672-8.649c4.764,0,8.649,3.873,8.649,8.649V102.797z
		 M130.299,422.509c-16.525-21.241-27.015-43.92-33.098-61.039h33.098V422.509z M130.299,349.305H93.304
		c-2.233-7.817-3.219-13.259-3.219-14.933v-47.924h40.214V349.305z M130.299,274.284H90.085v-27.918
		c0-9.575,7.758-17.333,17.32-17.333h22.894V274.284z M133.731,200.189h-25.97c-4.776,0-8.66-3.886-8.66-8.66
		c0-4.776,3.884-8.637,8.66-8.637h25.97c4.787,0,8.66,3.861,8.66,8.637C142.392,196.303,138.519,200.189,133.731,200.189z
		 M210.047,478.107c-28.369-8.209-50.478-23.665-67.584-41.52v-0.095h67.584V478.107z M210.047,424.327h-67.584V361.47h67.584
		V424.327z M210.047,349.305h-67.584v-62.857h67.584V349.305z M210.047,274.284h-67.584v-45.25h67.584V274.284z M289.798,481.124
		c-10.478,2.103-21.705,3.28-33.787,3.28c-12.081,0-23.319-1.188-33.798-3.315v-44.597h67.585V481.124z M289.798,424.327h-67.585
		V361.47h67.585V424.327z M289.798,349.305h-67.585v-62.857h67.585V349.305z M289.798,274.284h-67.585v-45.25h67.585V274.284z
		 M305.787,76.828c0-4.776,3.873-8.649,8.649-8.649c4.776,0,8.672,3.873,8.672,8.649v25.969c0,4.776-3.896,8.66-8.672,8.66
		c-4.776,0-8.649-3.884-8.649-8.66V76.828z M369.548,437.098c-17.072,17.701-39.169,33.002-67.585,41.116v-41.722h67.585V437.098z
		 M369.548,424.327h-67.585V361.47h67.585V424.327z M369.548,349.305h-67.585v-62.857h67.585V349.305z M369.548,274.284h-67.585
		v-45.25h67.585V274.284z M369.631,191.528c0-4.776,3.861-8.637,8.648-8.637h25.97c4.776,0,8.648,3.861,8.648,8.637
		c0,4.775-3.872,8.66-8.648,8.66h-25.97C373.492,200.189,369.631,196.303,369.631,191.528z M381.713,423.078V361.47h33.252
		C408.93,378.743,398.44,401.684,381.713,423.078z M421.925,334.372c0,1.674-0.95,7.116-3.136,14.933h-37.076v-62.857h40.212
		V334.372z M421.925,274.284h-40.212v-45.25h22.904c9.563,0,17.308,7.758,17.308,17.333V274.284z"/>
</g>
</svg>