<?xml version="1.0" encoding="utf-8"?>
<svg xmlns="http://www.w3.org/2000/svg" viewBox="0 0 500 500" xmlns:bx="https://boxy-svg.com" width="500px" height="500px"><defs><bx:export><bx:file format="svg"/></bx:export></defs><g id="Layer_1"><g id="SVGRepo_iconCarrier" transform="matrix(1, 0, 0, 1, 14.1428, 120.025513)"><path style="fill: rgb(210, 84, 25); transform-origin: 160.592px 262.287px 0px;" d="M 152.805 253.242 L 92.931 315.386 L 85.123 306.529 L 177.894 211.239 C 178.63 210.483 179.367 210.483 180.472 210.483 L 181.576 210.483 L 236.06 210.483 L 236.06 251.7 L 155.805 251.7 L 153.228 251.7 C 153.228 252.078 153.174 252.864 152.805 253.242 Z" transform="matrix(-0.978148, 0.207912, -0.207912, -0.978148, 0.000012, -0.000005)"/><path style="fill: rgb(210, 84, 25); transform-origin: 33.043px 320.905px 0px;" d="M 34.147 300.297 C 44.824 300.297 54.027 310.128 54.027 321.851 C 54.027 332.816 45.192 341.513 33.779 341.513 L 12.059 341.513 L 12.059 300.297 L 34.147 300.297 Z" transform="matrix(-0.978148, 0.207912, -0.207912, -0.978148, 0, 0)"/><rect x="71.892" y="-293.98" style="fill: rgb(210, 127, 25); transform-origin: 88.274px -273.367px 0px;" width="32.765" height="41.217" transform="matrix(-0.978148, 0.207912, 0.207912, 0.978148, -15.080656, 585.738523)"/><path d="M 295.392 -36.041 C 294.656 -36.041 293.943 -35.97 293.253 -35.829 C 292.562 -35.687 291.895 -35.474 291.251 -35.191 C 290.607 -34.907 289.985 -34.553 289.387 -34.128 C 288.789 -33.702 288.213 -33.206 287.661 -32.639 L 186.046 72.824 L 177.835 111.109 L 270.726 18.409 L 306.068 18.409 L 341.409 18.409 L 376.751 18.409 L 412.092 18.409 C 415.59 18.409 418.926 17.629 421.963 16.229 C 425 14.829 427.738 12.808 430.039 10.327 C 432.34 7.845 434.204 4.903 435.492 1.659 C 436.781 -1.585 437.494 -5.13 437.494 -8.817 C 437.494 -12.504 436.758 -16.048 435.441 -19.292 C 434.123 -22.535 432.225 -25.478 429.901 -27.959 C 427.577 -30.44 424.828 -32.461 421.808 -33.861 C 418.788 -35.261 415.498 -36.041 412.092 -36.041 L 382.917 -36.041 L 353.742 -36.041 L 324.567 -36.041 L 295.392 -36.041 Z M 176.339 104.785 L 188.491 79.204 L 292.815 -27.722 C 292.999 -27.911 293.183 -28.077 293.373 -28.219 C 293.563 -28.36 293.758 -28.478 293.965 -28.573 C 294.172 -28.668 294.39 -28.739 294.626 -28.786 C 294.862 -28.833 295.115 -28.857 295.392 -28.857 L 324.475 -28.857 L 353.558 -28.857 L 382.641 -28.857 L 411.724 -28.857 C 414.209 -28.857 416.579 -28.29 418.736 -27.273 C 420.893 -26.257 422.838 -24.792 424.471 -22.996 C 426.105 -21.2 427.427 -19.073 428.342 -16.734 C 429.257 -14.394 429.763 -11.842 429.763 -9.195 C 429.763 -6.548 429.234 -3.995 428.29 -1.656 C 427.347 0.684 425.989 2.811 424.333 4.607 C 422.676 6.403 420.721 7.868 418.581 8.885 C 416.441 9.901 414.117 10.468 411.724 10.468 L 376.014 10.468 L 340.305 10.468 L 304.595 10.468 L 268.886 10.468 C 268.609 10.468 268.356 10.492 268.12 10.539 C 267.885 10.587 267.666 10.658 267.459 10.752 C 267.252 10.847 267.057 10.965 266.867 11.106 C 266.677 11.248 266.493 11.413 266.309 11.602 L 176.339 104.785 Z" style="transform-origin: 204.277px 136.423px 0px;" transform="matrix(-0.978148, 0.207912, -0.207912, -0.978148, -0.000013, 0.000006)"/><path d="M 216.113 188.557 C 215.008 188.557 214.272 188.936 213.536 189.692 C 212.063 191.205 212.063 193.474 213.536 194.986 L 223.844 205.574 C 225.316 207.087 227.525 207.087 228.998 205.574 C 230.47 204.061 230.47 201.792 228.998 200.281 L 218.69 189.692 C 217.953 188.936 216.849 188.557 216.113 188.557 Z" style="transform-origin: 221.267px 197.633px 0px;" transform="matrix(-0.978148, 0.207912, -0.207912, -0.978148, 0, 0)"/><path d="M 55.162 290.792 C 52.953 290.792 51.48 292.304 51.48 294.573 L 51.48 335.789 C 51.48 338.058 52.953 339.571 55.162 339.571 C 57.371 339.571 58.843 338.058 58.843 335.789 L 58.843 294.573 C 58.843 292.682 57.371 290.792 55.162 290.792 Z" style="transform-origin: 55.162px 315.181px 0px;" transform="matrix(-0.978148, 0.207912, -0.207912, -0.978148, 0, 0)"/><path d="M 90.811 283.214 C 88.602 283.214 87.13 284.726 87.13 286.995 L 87.13 328.211 C 87.13 330.48 88.602 331.993 90.811 331.993 C 93.02 331.993 94.492 330.48 94.492 328.211 L 94.492 286.995 C 94.492 285.104 93.02 283.214 90.811 283.214 Z" style="transform-origin: 90.811px 307.603px 0px;" transform="matrix(-0.978148, 0.207912, -0.207912, -0.978148, 0, 0)"/><rect x="112.824" y="-28.48" width="92.659" height="20.679" style="stroke: rgba(0, 0, 0, 0); stroke-width: 1px; transform-origin: 159.154px -18.14px 0px;" rx="10" ry="10" transform="matrix(0.819152, 0.573576, -0.573576, 0.819152, 184.864997, 94.756904)"/><rect x="223.437" y="-28.48" width="183.503" height="20.679" style="stroke: rgba(0, 0, 0, 0); transform-origin: 315.189px -18.14px 0px;" rx="10" ry="10" transform="matrix(0.544639, -0.838671, 0.838671, 0.544639, -46.901206, 141.740104)"/><rect x="112.454" y="-28.48" width="92.356" height="20.679" style="stroke: rgba(0, 0, 0, 0); stroke-width: 1px; transform-origin: 158.632px -18.14px 0px;" rx="10" ry="10" transform="matrix(0.544639, -0.838671, 0.838671, 0.544639, 235.323012, 83.992876)"/><rect x="779.699" y="124.095" width="170.093" height="10" style="stroke-width: 6px; fill: rgb(210, 84, 25); stroke: rgba(0, 0, 0, 0); transform-origin: 864.748px 129.094px 0px;" rx="5" ry="5" transform="matrix(0.544638, -0.838671, 0.838671, 0.544638, -595.843809, -5.930314)"/><rect x="332.583" y="113.363" width="83.103" height="9.765" style="stroke-width: 6px; fill: rgb(210, 84, 25); stroke: rgba(0, 0, 0, 0); transform-origin: 374.136px 118.244px 0px;" rx="5" ry="5" transform="matrix(0.819115, 0.57363, -0.57363, 0.819115, -30.600118, -41.692618)"/><path d="M 453.767 -53.216 Q 455.896 -57.423 458.026 -53.216 L 484.187 -1.527 Q 486.316 2.68 482.057 2.68 L 429.736 2.68 Q 425.477 2.68 427.606 -1.527 Z" bx:shape="triangle 425.477 -57.423 60.839 60.103 0.5 0.07 1@75da1cf1" style="stroke: rgb(0, 0, 0); transform-origin: 455.896px -27.371px 0px;" transform="matrix(0.819152, 0.573576, -0.573576, 0.819152, -26.440984, 41.69372)"/><rect x="383.091" y="124.095" width="83.572" height="10" style="stroke-width: 6px; fill: rgb(210, 84, 25); stroke: rgba(0, 0, 0, 0); transform-origin: 424.878px 129.094px 0px;" rx="5" ry="5" transform="matrix(0.544638, -0.838671, 0.838671, 0.544638, -30.875022, -62.551447)"/><path d="M 406.913 28.561 Q 407.838 26.724 408.762 28.561 L 430.029 70.805 Q 430.954 72.642 429.105 72.642 L 386.57 72.642 Q 384.721 72.642 385.646 70.805 Z" bx:shape="triangle 384.721 26.724 46.233 45.918 0.5 0.04 1@8f7d763a" style="stroke: rgb(210, 84, 25); fill: rgb(210, 84, 25); transform-origin: 407.838px 49.683px 0px;" transform="matrix(0.819153, 0.573576, -0.573575, 0.819153, 19.669798, -33.165997)"/></g></g><g id="group-1" transform="matrix(-1, 0, 0, 1, 472.004028, 0.586496)" style=""><g id="group-4" transform="matrix(1, 0, 0, 1, 14.1428, 120.025513)"><path style="fill: rgb(210, 84, 25); transform-origin: 160.592px 262.287px 0px;" d="M 152.492 252.456 L 92.486 314.092 L 85.123 306.529 L 177.894 211.239 C 178.63 210.483 179.367 210.483 180.472 210.483 L 181.576 210.483 L 236.06 210.483 L 236.06 251.7 L 155.805 251.7 L 153.228 251.7 C 153.228 252.078 152.861 252.078 152.492 252.456 Z" transform="matrix(-0.978148, 0.207912, -0.207912, -0.978148, 0, 0)"/><path style="fill: rgb(210, 84, 25); transform-origin: 33.043px 320.905px 0px;" d="M 34.147 300.297 C 44.824 300.297 54.027 310.128 54.027 321.851 C 54.027 332.816 45.192 341.513 33.779 341.513 L 12.059 341.513 L 12.059 300.297 L 34.147 300.297 Z" transform="matrix(-0.978148, 0.207912, -0.207912, -0.978148, 0, 0)"/><rect x="71.892" y="-293.98" style="fill: rgb(210, 127, 25); transform-origin: 88.274px -273.367px 0px;" width="32.765" height="41.217" transform="matrix(-0.978148, 0.207912, 0.207912, 0.978148, -15.080656, 585.738523)"/><path style="fill: rgb(210, 84, 25); transform-origin: 306.429px 63.071px 0px;" d="M 202.246 177.456 C 201.142 178.59 199.669 179.347 198.197 179.347 C 196.724 179.347 195.251 178.969 194.515 177.835 C 193.411 176.7 193.043 175.565 193.043 174.053 C 193.043 172.541 193.779 171.406 194.515 170.271 L 412.455 -53.204 L 419.817 -45.641 L 202.246 177.456 Z" transform="matrix(-0.978148, 0.207912, -0.207912, -0.978148, 0, 0)"/><path d="M 295.392 -36.041 C 292.447 -36.041 289.87 -34.908 287.661 -32.639 L -25.628 289.529 C -27.837 291.799 -28.941 294.446 -28.941 297.47 C -28.941 300.495 -27.837 303.52 -25.628 305.411 C -23.419 307.68 -20.842 308.814 -18.265 308.814 C -15.32 309.192 -12.375 308.058 -10.166 305.789 L 270.726 18.409 L 412.092 18.409 C 426.082 18.409 437.494 5.931 437.494 -8.817 C 437.494 -23.563 425.713 -36.041 412.092 -36.041 L 295.392 -36.041 Z M -17.529 301.252 C -17.897 301.252 -17.897 301.252 -17.529 301.252 C -18.633 301.252 -19.737 300.874 -20.474 299.739 C -21.21 298.983 -21.578 298.226 -21.578 297.091 C -21.578 295.957 -21.21 295.201 -20.474 294.446 L 292.815 -27.722 C 293.551 -28.479 294.287 -28.857 295.392 -28.857 L 411.724 -28.857 C 421.664 -28.857 429.763 -19.782 429.763 -9.195 C 429.763 1.393 421.296 10.468 411.724 10.468 L 268.886 10.468 C 267.781 10.468 267.045 10.847 266.309 11.602 L -15.688 300.117 C -16.056 301.252 -17.16 301.252 -17.529 301.252 Z" style="transform-origin: 204.277px 136.423px 0px;" transform="matrix(-0.978148, 0.207912, -0.207912, -0.978148, 0, 0)"/><path d="M 216.113 188.557 C 215.008 188.557 214.272 188.936 213.536 189.692 C 212.063 191.205 212.063 193.474 213.536 194.986 L 223.844 205.574 C 225.316 207.087 227.525 207.087 228.998 205.574 C 230.47 204.061 230.47 201.792 228.998 200.281 L 218.69 189.692 C 217.953 188.936 216.849 188.557 216.113 188.557 Z" style="transform-origin: 221.267px 197.633px 0px;" transform="matrix(-0.978148, 0.207912, -0.207912, -0.978148, 0, 0)"/><path d="M 55.162 290.792 C 52.953 290.792 51.48 292.304 51.48 294.573 L 51.48 335.789 C 51.48 338.058 52.953 339.571 55.162 339.571 C 57.371 339.571 58.843 338.058 58.843 335.789 L 58.843 294.573 C 58.843 292.682 57.371 290.792 55.162 290.792 Z" style="transform-origin: 55.162px 315.181px 0px;" transform="matrix(-0.978148, 0.207912, -0.207912, -0.978148, 0, 0)"/><path d="M 90.811 283.214 C 88.602 283.214 87.13 284.726 87.13 286.995 L 87.13 328.211 C 87.13 330.48 88.602 331.993 90.811 331.993 C 93.02 331.993 94.492 330.48 94.492 328.211 L 94.492 286.995 C 94.492 285.104 93.02 283.214 90.811 283.214 Z" style="transform-origin: 90.811px 307.603px 0px;" transform="matrix(-0.978148, 0.207912, -0.207912, -0.978148, 0, 0)"/></g></g></svg>